{
  "accessors": [
    {
      "bufferView": 2,
      "componentType": 5126,
      "count": 65532,
      "max": [
        3.4712376594543457,
        -0.34219551086425781,
        10.199475288391113
      ],
      "min": [
        -11.159167289733887,
        -6.4847283363342285,
        -3.6984925270080566
      ],
      "type": "VEC3"
    },
    {
      "bufferView": 2,
      "byteOffset": 786384,
      "componentType": 5126,
      "count": 65532,
      "max": [
        0.99916517734527588,
        0.99997454881668091,
        0.99950665235519409
      ],
      "min": [
        -0.99994158744812012,
        -0.99999576807022095,
        -0.99993818998336792
      ],
      "type": "VEC3"
    },
    {
      "bufferView": 3,
      "componentType": 5126,
      "count": 65532,
      "max": [
        0.81176471710205078,
        0.80392158031463623,
        0.81960785388946533,
        1
      ],
      "min": [
        0,
        0,
        0,
        1
      ],
      "type": "VEC4"
    },
    {
      "bufferView": 1,
      "componentType": 5126,
      "count": 65532,
      "max": [
        0.99877899885177612,
        0.92797797918319702
      ],
      "min": [
        0.00024399999529123306,
        0.0012209999840706587
      ],
      "type": "VEC2"
    },
    {
      "bufferView": 0,
      "componentType": 5125,
      "count": 288192,
      "max": [
        65531
      ],
      "min": [
        0
      ],
      "type": "SCALAR"
    },
    {
      "bufferView": 2,
      "byteOffset": 1572768,
      "componentType": 5126,
      "count": 65532,
      "max": [
        0.93566930294036865,
        -0.34219551086425781,
        10.32719898223877
      ],
      "min": [
        -11.113466262817383,
        -6.1156034469604492,
        -0.44543683528900146
      ],
      "type": "VEC3"
    },
    {
      "bufferView": 2,
      "byteOffset": 2359152,
      "componentType": 5126,
      "count": 65532,
      "max": [
        0.99999701976776123,
        0.99987858533859253,
        0.99999439716339111
      ],
      "min": [
        -0.9998435378074646,
        -0.99998801946640015,
        -0.99996381998062134
      ],
      "type": "VEC3"
    },
    {
      "bufferView": 3,
      "byteOffset": 1048512,
      "componentType": 5126,
      "count": 65532,
      "max": [
        0.82352942228317261,
        0.83529412746429443,
        0.85490196943283081,
        1
      ],
      "min": [
        0,
        0,
        0,
        1
      ],
      "type": "VEC4"
    },
    {
      "bufferView": 1,
      "byteOffset": 524256,
      "componentType": 5126,
      "count": 65532,
      "max": [
        0.99877899885177612,
        0.93383800983428955
      ],
      "min": [
        0.00024399999529123306,
        0.0012209999840706587
      ],
      "type": "VEC2"
    },
    {
      "bufferView": 0,
      "byteOffset": 1152768,
      "componentType": 5125,
      "count": 235140,
      "max": [
        65531
      ],
      "min": [
        0
      ],
      "type": "SCALAR"
    },
    {
      "bufferView": 2,
      "byteOffset": 3145536,
      "componentType": 5126,
      "count": 65532,
      "max": [
        7.0832662582397461,
        -0.54043674468994141,
        8.485905647277832
      ],
      "min": [
        -11.165483474731445,
        -6.4917702674865723,
        -9.3255081176757812
      ],
      "type": "VEC3"
    },
    {
      "bufferView": 2,
      "byteOffset": 3931920,
      "componentType": 5126,
      "count": 65532,
      "max": [
        0.99999749660491943,
        0.99989771842956543,
        0.99992185831069946
      ],
      "min": [
        -0.99990057945251465,
        -0.9999992847442627,
        -0.99948465824127197
      ],
      "type": "VEC3"
    },
    {
      "bufferView": 3,
      "byteOffset": 2097024,
      "componentType": 5126,
      "count": 65532,
      "max": [
        0.85098040103912354,
        0.85882353782653809,
        0.78823530673980713,
        1
      ],
      "min": [
        0,
        0,
        0,
        1
      ],
      "type": "VEC4"
    },
    {
      "bufferView": 1,
      "byteOffset": 1048512,
      "componentType": 5126,
      "count": 65532,
      "max": [
        0.99877899885177612,
        0.94848597049713135
      ],
      "min": [
        0.00024399999529123306,
        0.0012209999840706587
      ],
      "type": "VEC2"
    },
    {
      "bufferView": 0,
      "byteOffset": 2093328,
      "componentType": 5125,
      "count": 264366,
      "max": [
        65531
      ],
      "min": [
        0
      ],
      "type": "SCALAR"
    },
    {
      "bufferView": 2,
      "byteOffset": 4718304,
      "componentType": 5126,
      "count": 65532,
      "max": [
        7.3995962142944336,
        -0.57806491851806641,
        2.7366607189178467
      ],
      "min": [
        -8.80877685546875,
        -6.4917702674865723,
        -10.368797302246094
      ],
      "type": "VEC3"
    },
    {
      "bufferView": 2,
      "byteOffset": 5504688,
      "componentType": 5126,
      "count": 65532,
      "max": [
        0.99999409914016724,
        0.99989438056945801,
        0.99998164176940918
      ],
      "min": [
        -0.99998319149017334,
        -0.9999992847442627,
        -0.9999735951423645
      ],
      "type": "VEC3"
    },
    {
      "bufferView": 3,
      "byteOffset": 3145536,
      "componentType": 5126,
      "count": 65532,
      "max": [
        0.85490196943283081,
        0.85882353782653809,
        0.80000001192092896,
        1
      ],
      "min": [
        0,
        0,
        0,
        1
      ],
      "type": "VEC4"
    },
    {
      "bufferView": 1,
      "byteOffset": 1572768,
      "componentType": 5126,
      "count": 65532,
      "max": [
        0.99877899885177612,
        0.96166998147964478
      ],
      "min": [
        0.00024399999529123306,
        0.0012209999840706587
      ],
      "type": "VEC2"
    },
    {
      "bufferView": 0,
      "byteOffset": 3150792,
      "componentType": 5125,
      "count": 229722,
      "max": [
        65531
      ],
      "min": [
        0
      ],
      "type": "SCALAR"
    },
    {
      "bufferView": 2,
      "byteOffset": 6291072,
      "componentType": 5126,
      "count": 65532,
      "max": [
        5.4416618347167969,
        -0.56507587432861328,
        2.6724135875701904
      ],
      "min": [
        -8.7857093811035156,
        -6.3435487747192383,
        -10.557968139648438
      ],
      "type": "VEC3"
    },
    {
      "bufferView": 2,
      "byteOffset": 7077456,
      "componentType": 5126,
      "count": 65532,
      "max": [
        0.9999229907989502,
        0.99907553195953369,
        0.99967199563980103
      ],
      "min": [
        -0.99994158744812012,
        -0.99999946355819702,
        -0.99996143579483032
      ],
      "type": "VEC3"
    },
    {
      "bufferView": 3,
      "byteOffset": 4194048,
      "componentType": 5126,
      "count": 65532,
      "max": [
        0.78823530673980713,
        0.80392158031463623,
        0.78823530673980713,
        1
      ],
      "min": [
        0,
        0,
        0,
        1
      ],
      "type": "VEC4"
    },
    {
      "bufferView": 1,
      "byteOffset": 2097024,
      "componentType": 5126,
      "count": 65532,
      "max": [
        0.99877899885177612,
        0.94995099306106567
      ],
      "min": [
        0.00024399999529123306,
        0.0012209999840706587
      ],
      "type": "VEC2"
    },
    {
      "bufferView": 0,
      "byteOffset": 4069680,
      "componentType": 5125,
      "count": 244290,
      "max": [
        65531
      ],
      "min": [
        0
      ],
      "type": "SCALAR"
    },
    {
      "bufferView": 2,
      "byteOffset": 7863840,
      "componentType": 5126,
      "count": 65532,
      "max": [
        5.6967706680297852,
        -0.46128273010253906,
        2.6631133556365967
      ],
      "min": [
        -8.3438777923583984,
        -6.4406571388244629,
        -9.9732589721679688
      ],
      "type": "VEC3"
    },
    {
      "bufferView": 2,
      "byteOffset": 8650224,
      "componentType": 5126,
      "count": 65532,
      "max": [
        0.99993640184402466,
        0.99907553195953369,
        0.99985623359680176
      ],
      "min": [
        -0.99992388486862183,
        -0.99999803304672241,
        -0.99980419874191284
      ],
      "type": "VEC3"
    },
    {
      "bufferView": 3,
      "byteOffset": 5242560,
      "componentType": 5126,
      "count": 65532,
      "max": [
        0.82745099067687988,
        0.82352942228317261,
        0.78431373834609985,
        1
      ],
      "min": [
        0,
        0,
        0,
        1
      ],
      "type": "VEC4"
    },
    {
      "bufferView": 1,
      "byteOffset": 2621280,
      "componentType": 5126,
      "count": 65532,
      "max": [
        0.99877899885177612,
        0.9587399959564209
      ],
      "min": [
        0.00024399999529123306,
        0.0012209999840706587
      ],
      "type": "VEC2"
    },
    {
      "bufferView": 0,
      "byteOffset": 5046840,
      "componentType": 5125,
      "count": 211446,
      "max": [
        65531
      ],
      "min": [
        0
      ],
      "type": "SCALAR"
    },
    {
      "bufferView": 2,
      "byteOffset": 9436608,
      "componentType": 5126,
      "count": 10972,
      "max": [
        5.4733467102050781,
        -0.72033119201660156,
        2.677748441696167
      ],
      "min": [
        -8.8587503433227539,
        -6.139289379119873,
        -9.2174005508422852
      ],
      "type": "VEC3"
    },
    {
      "bufferView": 2,
      "byteOffset": 9568272,
      "componentType": 5126,
      "count": 10972,
      "max": [
        0.99977874755859375,
        0.99470186233520508,
        0.99068498611450195
      ],
      "min": [
        -0.999370276927948,
        -0.9999995231628418,
        -0.99813169240951538
      ],
      "type": "VEC3"
    },
    {
      "bufferView": 3,
      "byteOffset": 6291072,
      "componentType": 5126,
      "count": 10972,
      "max": [
        0.85490196943283081,
        0.85882353782653809,
        0.76862746477127075,
        1
      ],
      "min": [
        0,
        0,
        0,
        1
      ],
      "type": "VEC4"
    },
    {
      "bufferView": 1,
      "byteOffset": 3145536,
      "componentType": 5126,
      "count": 10972,
      "max": [
        0.99877899885177612,
        0.93995702266693115
      ],
      "min": [
        0.00024399999529123306,
        0.0012209999840706587
      ],
      "type": "VEC2"
    },
    {
      "bufferView": 0,
      "byteOffset": 5892624,
      "componentType": 5125,
      "count": 26844,
      "max": [
        10971
      ],
      "min": [
        0
      ],
      "type": "SCALAR"
    }
  ],
  "asset": {
    "extras": {
      "author": "Renafox (https://sketchfab.com/kryik1023)",
      "license": "CC-BY-4.0 (http://creativecommons.org/licenses/by/4.0/)",
      "source": "https://sketchfab.com/3d-models/plastic-scale-model-car-raw-scan-78fd168b655747c892589420a5fb9a35",
      "title": "Plastic Scale Model Car (Raw Scan)"
    },
    "generator": "Sketchfab-8.46.0",
    "version": "2.0"
  },
  "bufferViews": [
    {
      "buffer": 0,
      "byteLength": 6000000,
      "byteOffset": 0,
      "name": "floatBufferViews",
      "target": 34963
    },
    {
      "buffer": 0,
      "byteLength": 3233312,
      "byteOffset": 6000000,
      "byteStride": 8,
      "name": "floatBufferViews",
      "target": 34962
    },
    {
      "buffer": 0,
      "byteLength": 9699936,
      "byteOffset": 9233312,
      "byteStride": 12,
      "name": "floatBufferViews",
      "target": 34962
    },
    {
      "buffer": 0,
      "byteLength": 6466624,
      "byteOffset": 18933248,
      "byteStride": 16,
      "name": "floatBufferViews",
      "target": 34962
    }
  ],
  "buffers": [
    {
      "byteLength": 25399872,
      "uri": "scene.bin"
    }
  ],
  "extensionsUsed": [
    "KHR_materials_unlit"
  ],
  "images": [
    {
      "uri": "textures/modelcar_Material_u1_v1_baseColor.jpeg"
    }
  ],
  "materials": [
    {
      "doubleSided": true,
      "emissiveFactor": [
        0,
        0,
        0
      ],
      "extensions": {
        "KHR_materials_unlit": {}
      },
      "name": "modelcar_Material_u1_v1",
      "pbrMetallicRoughness": {
        "baseColorFactor": [
          1,
          1,
          1,
          1
        ],
        "baseColorTexture": {
          "index": 0,
          "texCoord": 0
        },
        "metallicFactor": 0,
        "roughnessFactor": 1
      }
    }
  ],
  "meshes": [
    {
      "primitives": [
        {
          "attributes": {
            "COLOR_0": 2,
            "NORMAL": 1,
            "POSITION": 0,
            "TEXCOORD_0": 3
          },
          "indices": 4,
          "material": 0,
          "mode": 4
        }
      ]
    },
    {
      "primitives": [
        {
          "attributes": {
            "COLOR_0": 7,
            "NORMAL": 6,
            "POSITION": 5,
            "TEXCOORD_0": 8
          },
          "indices": 9,
          "material": 0,
          "mode": 4
        }
      ]
    },
    {
      "primitives": [
        {
          "attributes": {
            "COLOR_0": 12,
            "NORMAL": 11,
            "POSITION": 10,
            "TEXCOORD_0": 13
          },
          "indices": 14,
          "material": 0,
          "mode": 4
        }
      ]
    },
    {
      "primitives": [
        {
          "attributes": {
            "COLOR_0": 17,
            "NORMAL": 16,
            "POSITION": 15,
            "TEXCOORD_0": 18
          },
          "indices": 19,
          "material": 0,
          "mode": 4
        }
      ]
    },
    {
      "primitives": [
        {
          "attributes": {
            "COLOR_0": 22,
            "NORMAL": 21,
            "POSITION": 20,
            "TEXCOORD_0": 23
          },
          "indices": 24,
          "material": 0,
          "mode": 4
        }
      ]
    },
    {
      "primitives": [
        {
          "attributes": {
            "COLOR_0": 27,
            "NORMAL": 26,
            "POSITION": 25,
            "TEXCOORD_0": 28
          },
          "indices": 29,
          "material": 0,
          "mode": 4
        }
      ]
    },
    {
      "primitives": [
        {
          "attributes": {
            "COLOR_0": 32,
            "NORMAL": 31,
            "POSITION": 30,
            "TEXCOORD_0": 33
          },
          "indices": 34,
          "material": 0,
          "mode": 4
        }
      ]
    }
  ],
  "nodes": [
    {
      "children": [
        1
      ],
      "name": "RootNode (gltf orientation matrix)",
      "rotation": [
        -0.70710678118654746,
        -0,
        -0,
        0.70710678118654757
      ]
    },
    {
      "children": [
        2
      ],
      "matrix": [
        0.99962031841278076,
        -1.7347234759768071e-18,
        0.027553485706448555,
        0,
        0.027514399960637093,
        0.053246166557073593,
        -0.99820226430892944,
        0,
        -0.0014671175740659237,
        0.9985814094543457,
        0.05322594940662384,
        0,
        0.09313192218542099,
        -3.119783878326416,
        -3.468231201171875,
        1
      ],
      "name": "RootNode (model correction matrix)"
    },
    {
      "children": [
        3,
        4,
        5,
        6,
        7,
        8,
        9
      ],
      "name": "modelcar.obj.cleaner.materialmerger.gles"
    },
    {
      "mesh": 0,
      "name": ""
    },
    {
      "mesh": 1,
      "name": ""
    },
    {
      "mesh": 2,
      "name": ""
    },
    {
      "mesh": 3,
      "name": ""
    },
    {
      "mesh": 4,
      "name": ""
    },
    {
      "mesh": 5,
      "name": ""
    },
    {
      "mesh": 6,
      "name": ""
    }
  ],
  "samplers": [
    {
      "magFilter": 9729,
      "minFilter": 9987,
      "wrapS": 10497,
      "wrapT": 10497
    }
  ],
  "scene": 0,
  "scenes": [
    {
      "name": "OSG_Scene",
      "nodes": [
        0
      ]
    }
  ],
  "textures": [
    {
      "sampler": 0,
      "source": 0
    }
  ]
}

